<?xml version="1.0"?>
<svg width="640" height="480" xmlns="http://www.w3.org/2000/svg" xmlns:svg="http://www.w3.org/2000/svg">
 <!-- Created with SVG-edit - http://svg-edit.googlecode.com/ -->
 <g>
  <title>Layer 1</title>
  <ellipse stroke="#000000" id="svg_7" ry="54.875" rx="86.000003" cy="160.625" cx="294.000003" stroke-opacity="0" stroke-width="5" fill="#ffff00"/>
  <ellipse stroke="#000000" ry="47.5" rx="111.999997" id="svg_13" cy="142.5" cx="122.999995" stroke-opacity="0" stroke-linecap="null" stroke-linejoin="null" stroke-dasharray="null" stroke-width="5" fill="#000000"/>
  <ellipse stroke="#000000" ry="99" rx="172" id="svg_2" cy="338" cx="295" stroke-opacity="0" stroke-width="5" fill="#ffff00"/>
  <ellipse stroke="#000000" id="svg_5" ry="86.337211" rx="150.000004" cy="280.162789" cx="296.000004" stroke-opacity="0" stroke-width="5" fill="#ffff00"/>
  <ellipse stroke="#000000" id="svg_6" ry="62.738369" rx="108.999995" cy="210.761631" cx="291.999995" stroke-opacity="0" stroke-width="5" fill="#ffff00"/>
  <polygon stroke="#333333" stroke-width="5" points="416.5,33.29767990112305 455.72076416015625,146.13082885742188 575.1513671875,148.56466674804688 479.9605407714844,220.73318481445312 514.5519409179688,335.0705261230469 416.5,266.8399658203125 318.4480895996094,335.0705261230469 353.0394592285156,220.73318481445312 257.8486328125,148.56466674804688 377.27923583984375,146.13082885742188 416.5,33.29767990112305 455.72076416015625,146.13082885742188 " strokeWidth="5" strokecolor="#ffff00" fill="#ffffff" orient="point" r2="59.366133" r="148.415333" point="5" shape="star" id="svg_16" cy="72" cx="269"/>
  <polygon stroke="#999999" id="svg_18" stroke-width="5" points="416.5,41.33047866821289 453.7430419921875,148.4739990234375 567.1513671875,150.78512573242188 476.76055908203125,219.3145294189453 509.607666015625,327.88641357421875 416.5,263.09637451171875 323.3923645019531,327.88641357421875 356.2394714355469,219.3145294189453 265.8486328125,150.78512573242188 379.2569580078125,148.4739990234375 416.5,41.33047866821289 453.7430419921875,148.4739990234375 " strokeWidth="5" strokecolor="#ffff00" fill="#ffffff" orient="point" r2="59.366133" r="148.415333" point="5" shape="star" cy="72" cx="269"/>
  <path stroke="#000000" d="m143.288864,289.347931c0.306244,-0.760651 1.084747,-1.20697 1.718521,-1.91568c0.580643,-0.649261 1.200699,-1.221832 1.872528,-1.822601c0.621246,-0.555511 1.369705,-0.95224 2.097839,-1.425995c0.734039,-0.47757 1.618958,-0.596466 2.311111,-0.96579l0.718521,-0.375153l0.917038,-0.007996" id="svg_21" stroke-linecap="null" stroke-linejoin="null" stroke-dasharray="null" stroke-width="3" fill="none"/>
  <path transform="rotate(6.029951572418213 184.0000152587893,222.1629791259765) " stroke="#000000" id="svg_22" d="m179.182236,225.185211c0.306244,-0.705902 1.084747,-1.120148 1.718521,-1.777802c0.580643,-0.602539 1.200699,-1.133911 1.872528,-1.691467c0.621246,-0.515503 1.369705,-0.883667 2.097839,-1.323364c0.734039,-0.443176 1.618958,-0.553528 2.311111,-0.896301l0.718521,-0.348145l0.917038,-0.007385" stroke-linecap="null" stroke-linejoin="null" stroke-dasharray="null" stroke-width="3" fill="none"/>
  <polyline id="svg_23" points="146.37501525878906,287.25 146.85313415527344,286.52276611328125 147.37857055664062,285.87188720703125 " stroke-opacity="0" stroke-linecap="round" stroke-linejoin="null" stroke-dasharray="null" stroke-width="5" stroke="#000000" fill="none"/>
 </g>
</svg>